<mxfile host="app.diagrams.net" modified="2024-02-21T06:33:39.049Z" agent="Mozilla/5.0 (Windows NT 10.0; Win64; x64) AppleWebKit/537.36 (KHTML, like Gecko) Chrome/121.0.0.0 Safari/537.36" version="23.1.5" etag="tIC7N9UU6UfT2TBq6YfD" type="github">
  <diagram name="第 1 页" id="genrTdeKBSaxtS5t0LH6">
    <mxGraphModel>
      <root>
        <mxCell id="0" />
        <mxCell id="1" parent="0" />
      </root>
    </mxGraphModel>
  </diagram>
</mxfile>
